<svg xmlns="http://www.w3.org/2000/svg" xmlns:xlink="http://www.w3.org/1999/xlink" viewBox="0 0 1758.02 1291.19"><defs><style>.cls-1{font-size:175.59px;}.cls-1,.cls-6{fill:#fe0000;}.cls-1,.cls-3{font-family:Arial-Black, Arial;font-weight:800;}.cls-2{letter-spacing:0.02em;}.cls-3{font-size:82px;fill:#001dd4;}.cls-4{fill:url(#linear-gradient);}.cls-5{fill:#fff;}.cls-7{fill:#d4d4d6;}.cls-8{fill:#5cace0;}</style><linearGradient id="linear-gradient" x1="-132.51" y1="450.54" x2="1881.78" y2="925.55" gradientUnits="userSpaceOnUse"><stop offset="0.01" stop-color="#fe0000"/><stop offset="0.16" stop-color="#cb0033"/><stop offset="0.39" stop-color="#84007b"/><stop offset="0.6" stop-color="#4b00b4"/><stop offset="0.78" stop-color="#20d"/><stop offset="0.92" stop-color="#0900f6"/><stop offset="1" stop-color="blue"/></linearGradient></defs><g id="Layer_2" data-name="Layer 2"><g id="Layer_1-2" data-name="Layer 1"><text class="cls-1" transform="translate(889.32 1133.19)">FunSto<tspan class="cls-2" x="673.21" y="0">r</tspan><tspan x="753.97" y="0">e</tspan></text><text class="cls-3" transform="translate(853.74 1234.29)">shop with confident</text><path class="cls-4" d="M1525.09,347.16c-.82-13.65-5.3-28.88-13-40-62.84-90.93-127.23-180.8-190-271.77a82.34,82.34,0,0,1-12.29-29.88h-26.32q0,.55.06,1.11H1094.74V5.48H434.28l.09,1.74H246.83l-.24-1.74H218.26c-2.27,12.35-7.53,23.31-15.45,34.37C147.46,117.15,95.35,196.91,37.28,272.07,7,311.26-4,351.35,1.3,398.41c.17,1.53.17,3.09.26,4.63A119.13,119.13,0,0,0,84.69,509.56c7.3,2.27,14.73,4.11,21.88,6.09.63,3.13,1.48,5.38,1.48,7.63q.17,378.12-.4,756.23c0,3.54-2.06,7.88-5,11.68H1183.33v-4H623.67v-63q0-276.06,0-552.13c0-32.25-.1-32.29-32-32.29-111.37,0-222.75.59-334.11-.55-23.24-.23-28.55,8.17-28.49,29.53.59,196.42.32,392.83.31,589.25,0,9.14,0,18.28,0,30H133.73V515.15c39.93-6.77,70.85-28,92.29-63.11,60.15,86.81,161.78,81.16,215.76,1.17,58.59,85.47,160.55,79.88,214.64-1.26,25.93,37.83,59.22,63.15,106.76,62.92,46.59-.23,80.65-22.71,107.06-63.76,26.44,38.28,59.47,63.69,106.76,63.8,47.73.12,81.71-23.7,108.16-64.31,25.88,40.06,59.84,64.31,107.18,64.22s81.87-23.48,107-64.88c22.81,36.63,53.22,58.65,94.74,65.16V912.62h24.46q.09-186.71,0-373.41V516.94c65.31-21.49,95.66-47.94,104.19-95.83C1527,397,1526.57,371.72,1525.09,347.16ZM270.72,667.09c108.12.26,216.25.14,326.78.14.48,9.91,1.22,18.09,1.22,26.28.11,189.33-.08,378.66.52,568,.06,17.63-4.68,25.24-23,25.13-104.32-.62-208.64-.61-313-.91-2.16,0-4.31-1.12-8.44-2.26,0-200.09.06-398.65-.14-597.22C254.65,674.55,256.57,667.05,270.72,667.09ZM857.64,316H669.38c9.48-93.79,18.9-187,28.49-281.86h131C838.5,128.19,848,221,857.64,316ZM389.34,473.17c-30,22.76-72.62,23.76-104.78,3.52-40.19-25.3-54.46-70.24-41.55-133h182.1C436.91,409.29,427.22,444.47,389.34,473.17ZM509.1,64.68C486,141.46,462.35,218.05,440.35,295.13c-5.22,18.31-13.45,23.79-32.1,23.31-52.31-1.34-104.68-.47-162.18-.47,26.34-52.36,50.48-100.41,74.68-148.43,20.48-40.63,40.69-81.4,61.87-121.65,3.35-6.37,11.06-14.56,17-14.77,38.44-1.33,76.95-.68,119.11-.68C515,44.81,512.08,54.75,509.1,64.68ZM820.29,471.86c-31.68,24.08-72.81,26.14-106.61,4.88C663.16,445,665.19,395.4,669.91,343.06H856.48C861.31,391.36,864.55,438.22,820.29,471.86ZM1007.88,32.47c42.1,0,79.95-.41,117.77.45,5.41.12,13.19,5,15.67,9.84,46.19,90,91.74,180.28,138.81,273.26H1093.55ZM1259.2,463.1c-29.06,27.73-63.19,35.82-100.53,21.25-38-14.83-58.78-44-61-85.12-1-17.64-.16-35.38-.16-55.83h187.78C1288.65,386.63,1294.71,429.21,1259.2,463.1Z"/><path class="cls-5" d="M462.57,5.48V6h602.85V5.48Z"/><path class="cls-6" d="M254.8,1283.45c0-200.08,0-398.65-.14-597.22,0-11.68,1.91-19.18,16.06-19.14,108.12.26,216.24.14,326.78.14.48,9.91,1.21,18.09,1.22,26.28.1,189.33-.08,378.66.52,568,0,17.62-4.68,25.23-23,25.13-104.31-.63-208.64-.62-313-.92C261.08,1285.71,258.93,1284.6,254.8,1283.45Zm309.68-190c0-45.62-.57-91.24.28-136.84.35-19.09-7.18-26.27-25.92-26.14-74.22.51-148.45.82-222.67,0-21.51-.23-28.09,8.11-27.92,28.87q1.08,133.35-.23,266.71c-.24,21.89,8.45,28.21,28.77,28q111.33-1,222.68,0c19.4.18,25.68-7.33,25.29-26.12C563.85,1183.12,564.47,1138.27,564.48,1093.43ZM426.34,698.29v.11c-37.81,0-75.64.37-113.45-.16-17.77-.25-25.1,7.47-24.93,25,.49,50.93.73,101.86.35,152.78-.13,17.14,8,23.61,23.91,23.59q114.6-.15,229.21-.13c16,0,23.55-6.51,23.3-23.83q-1.12-76.38,0-152.78c.26-18.26-7.77-24.84-25-24.68C502,698.54,464.16,698.29,426.34,698.29Z"/><path class="cls-6" d="M828.91,34.12C838.5,128.19,848,221,857.63,316H669.38c9.48-93.79,18.9-187,28.49-281.86Z"/><path class="cls-6" d="M246.07,318c26.34-52.37,50.48-100.42,74.68-148.44,20.47-40.63,40.69-81.39,61.87-121.65,3.35-6.37,11.06-14.56,17-14.77,38.45-1.33,77-.68,119.12-.68-3.7,12.38-6.66,22.31-9.64,32.25C486,141.46,462.35,218.05,440.35,295.13c-5.23,18.31-13.45,23.79-32.1,23.31C355.94,317.1,303.57,318,246.07,318Z"/><path class="cls-6" d="M1007.87,32.47c42.1,0,79.95-.4,117.77.45,5.42.12,13.2,5,15.68,9.84,46.19,90,91.74,180.28,138.81,273.26H1093.55C1065.52,223.25,1037.23,129.62,1007.87,32.47Z"/><path class="cls-6" d="M669.9,343.06H856.48c4.83,48.3,8.06,95.16-36.19,128.8-31.69,24.08-72.82,26.14-106.61,4.88C663.16,445,665.18,395.4,669.9,343.06Z"/><path class="cls-6" d="M243,343.67H425.1c11.8,65.62,2.11,100.8-35.76,129.5-30,22.76-72.63,23.76-104.78,3.52C244.37,451.39,230.09,406.45,243,343.67Z"/><path class="cls-6" d="M1097.51,343.4h187.78c3.35,43.23,9.42,85.81-26.1,119.7-29,27.73-63.18,35.82-100.52,21.25-38-14.83-58.79-44-61-85.12C1096.72,381.59,1097.51,363.85,1097.51,343.4Z"/><path class="cls-5" d="M434.37,7.22H246.83l-.24-1.74H434.28Z"/><path class="cls-5" d="M1283.53,6.59H1094.74V5.48h188.73Q1283.49,6,1283.53,6.59Z"/><path class="cls-6" d="M694.74,886.26V868.62c0-70.48.29-141-.21-211.43-.09-13.4,4.1-17.78,17.71-17.73q179.75.64,359.49,0c13.49-.05,17.93,4.27,17.83,17.75-.52,69.93-.26,139.87-.27,209.8,0,6.43,0,12.86,0,20.19,20.9-1.63,19.34,11.93,19,24.74-.46,18.17-8.44,29.51-23.6,32.15-5.81,1-11.89.62-17.85.62q-175.68.06-351.35,0c-32.22,0-44.68-13.87-39-45.72,1-5.66,9.65-9.95,14.77-14.88Zm376.41,1.19V657.79H713.59c-.59,3.05-1.33,5.08-1.34,7.11-.1,70,.06,140-.38,209.93-.08,12.48,7.18,12.28,15.79,12.29q98.46.07,196.93.32C972.83,887.49,1021.07,887.45,1071.15,887.45Zm18.47,18.94H693.89c-1.83,15.16,4.39,19.72,18.28,19.68q179.6-.54,359.18,0C1085.48,926.13,1091.7,921.55,1089.62,906.39Z"/><path class="cls-7" d="M564.48,1093.43c0,44.84-.63,89.69.28,134.51.39,18.79-5.89,26.3-25.29,26.12q-111.33-1-222.68,0c-20.32.18-29-6.14-28.77-28q1.5-133.33.23-266.71c-.17-20.76,6.41-29.1,27.92-28.87,74.22.8,148.45.49,222.67,0,18.74-.13,26.27,7,25.92,26.14C563.91,1002.19,564.48,1047.81,564.48,1093.43Zm-28.1-136.08c-68.26,0-133.75.8-199.19-.49-19.69-.39-22.86,7.18-22.71,24.22.68,74.84.21,149.68.32,224.53,0,6.57,1.17,13.14,1.83,20.08H536.38Z"/><path d="M426.34,698.29c37.82,0,75.64.25,113.45-.12,17.21-.16,25.24,6.42,25,24.68q-1.07,76.38,0,152.78c.25,17.32-7.33,23.82-23.3,23.83q-114.6,0-229.21.13c-15.93,0-24-6.45-23.91-23.59.38-50.92.14-101.85-.35-152.78-.17-17.51,7.16-25.23,24.93-25,37.81.53,75.64.16,113.45.16ZM317.28,869.14H535.22V727.19H317.28Z"/><path class="cls-7" d="M536.38,957.35v268.34H316.63c-.66-6.94-1.82-13.51-1.83-20.08-.11-74.85.36-149.69-.32-224.53-.15-17,3-24.61,22.71-24.22C402.63,958.15,468.12,957.35,536.38,957.35Z"/><path class="cls-5" d="M317.28,869.14V727.19H535.22V869.14Z"/><path d="M1281.75,0c.18.59.35,1.19.48,1.8Q1282,.88,1281.75,0Zm1.5,11.53c.06,2.37,0,4.82,0,7.33C1283.28,16.35,1283.3,13.9,1283.25,11.53Z"/><path d="M1281.75,0c.18.59.35,1.19.48,1.8Q1282,.88,1281.75,0Z"/><path d="M1283.25,11.53c.06,2.37,0,4.82,0,7.33C1283.28,16.35,1283.3,13.9,1283.25,11.53Z"/><rect class="cls-8" x="712.25" y="664.9" width="358.89" height="222.55"/></g></g></svg>